<?xml version="1.0" encoding="utf-8"?>
<!-- Generator: Adobe Illustrator 18.1.1, SVG Export Plug-In . SVG Version: 6.00 Build 0)  -->
<!DOCTYPE svg PUBLIC "-//W3C//DTD SVG 1.1//EN" "http://www.w3.org/Graphics/SVG/1.1/DTD/svg11.dtd">
<svg version="1.1" xmlns="http://www.w3.org/2000/svg" xmlns:xlink="http://www.w3.org/1999/xlink" x="0px" y="0px"
	 viewBox="0 0 152 127" enable-background="new 0 0 152 127" xml:space="preserve">
<g id="Layer_1">
	<g>
		<defs>
			<rect id="SVGID_119_" x="0" y="150" width="152" height="127"/>
		</defs>
		<clipPath id="SVGID_1_">
			<use xlink:href="#SVGID_119_"  overflow="visible"/>
		</clipPath>
		<g clip-path="url(#SVGID_1_)">
			<g>
				<g>
					<defs>
						<polygon id="SVGID_129_" points="-11.1,149.8 -6.6,175 153.8,146.6 149.4,121.5 						"/>
					</defs>
					<use xlink:href="#SVGID_129_"  overflow="visible" fill="#EF4136"/>
					<clipPath id="SVGID_3_">
						<use xlink:href="#SVGID_129_"  overflow="visible"/>
					</clipPath>
					<polygon clip-path="url(#SVGID_3_)" fill="#EF4136" points="-6.6,175 -11.1,149.8 149.4,121.5 153.8,146.6 					"/>
				</g>
			</g>
		</g>
	</g>
	<g>
		<rect x="1" y="1" fill="#F1F2F2" width="150" height="125"/>
		<g>
			<g>
				<g>
					<rect x="0" y="0" fill="#6699CC" width="21.7" height="127"/>
					<rect x="21.7" y="0" fill="#F8991D" width="21.7" height="127"/>
					<rect x="43.4" y="0" width="21.7" height="127"/>
					<rect x="65.1" y="0" fill="#9B9284" width="21.7" height="127"/>
					<rect x="86.9" y="0" fill="#22205F" width="21.7" height="127"/>
					<rect x="108.6" y="0" fill="#F04923" width="21.7" height="127"/>
					<rect x="130.3" y="0" fill="#0D6A36" width="21.7" height="127"/>
				</g>
			</g>
		</g>
		<g opacity="0.5">
			<path fill="#F1F2F2" d="M126,108.4H55.7c-8.2,0-15.3-2.7-21-8.2C28.9,94.7,26,87.9,26,79.7V46.3c0-8.2,2.9-15.1,8.7-20.5
				c5.8-5.5,12.8-8.2,21-8.2H126v21.2H55.7c-5.7,0-8.5,2.5-8.5,7.6v33.3c0,5,2.8,7.6,8.5,7.6h49.1V73.6H76V52.4h50V108.4z"/>
		</g>
	</g>
</g>
<g id="Layer_2">
</g>
</svg>
