<?xml version="1.0" encoding="utf-8"?>
<!-- Generator: Adobe Illustrator 18.1.1, SVG Export Plug-In . SVG Version: 6.00 Build 0)  -->
<!DOCTYPE svg PUBLIC "-//W3C//DTD SVG 1.1//EN" "http://www.w3.org/Graphics/SVG/1.1/DTD/svg11.dtd">
<svg version="1.1" xmlns="http://www.w3.org/2000/svg" xmlns:xlink="http://www.w3.org/1999/xlink" x="0px" y="0px"
	 viewBox="0 0 152 127" enable-background="new 0 0 152 127" xml:space="preserve">
<g id="Layer_1">
	<g>
		<linearGradient id="SVGID_1_" gradientUnits="userSpaceOnUse" x1="76" y1="127" x2="76" y2="-3.412424e-09">
			<stop  offset="0" style="stop-color:#74D0F3"/>
			<stop  offset="1" style="stop-color:#309FD5"/>
		</linearGradient>
		<rect x="0" y="0" fill="url(#SVGID_1_)" width="152" height="127"/>
		<g>
			<g id="XMLID_3_">
				<g>
					<path fill="#3C1F25" d="M137.1,47.8c3.9,3.5,4.9,7.8,3.1,12.8c-0.3,0.6-0.3,1.6-0.1,2.2c0.9,2.5,0.8,4.8,0,7.3
						c-0.3,0.9-0.4,2-0.1,2.9c1.7,6.2,0.5,11.5-4.3,15.9c-0.8,0.7-1.5,1.7-2,2.6c-1.4,3.3-3.8,5.8-7.1,7c-2.4,0.9-4.8,2.1-7.5,2
						c-0.9-0.1-1.9,0.3-2.7,0.7c-3.3,1.9-7,2.2-10.6,2.6c-0.3,0-0.7,0.1-0.9,0c-2.5-1.5-4.6,0.2-6.8,1c-0.7,0.2-1.4,0.4-2,0.7
						c-3.1-0.2-6.1-0.4-9.2-0.5c-1.3-0.1-2.7-0.3-4-0.2c-6.9,0.5-12.7-1.5-16.8-7.3c-0.3-0.4-0.7-1-1.1-1.2c-2.4-1-4.9-2-7.3-0.1
						c-3.2,0.5-6.4,1-9.7,0.2c-1.7-0.4-3.6,0.4-5.5,0.6c-3.5,0.2-6.8-0.4-9.7-2.5c-0.4-0.3-1-0.4-1.5-0.6
						c-7.4-1.7-13.1-6.4-13.8-15.3c-0.1-0.9-0.5-1.8-0.9-2.7c-1.7-4.4-2.1-8.7,1-12.7c0.3-0.4,0-1.2,0-1.9c-0.2-0.8-0.3-1.6-0.5-2.4
						c0-0.6,0-1.3,0-1.9c0.1-0.5,0.2-1,0.3-1.4c0.1-0.1,0.2-0.3,0.1-0.4c0.9-1.9,2.3-3.2,4.2-4.1c0.6-0.3,1.5-0.8,1.5-1.3
						c0.3-3.1,2.2-5.4,3.7-7.8l-0.1-0.1c0.3-0.2,0.6-0.4,0.9-0.5c1.5-0.6,3.2-1.2,4.6-2c1.1-0.7,2.1-1.8,2.9-2.9
						c2.3-3.4,5.7-5.2,9.5-5.5c2.9-0.2,4.8-1.7,6.7-3.2c3.9-2.9,8-5,12.9-3.8c2.6,0.6,4.5-0.2,6.3-1.5c3.8-2.8,7.9-3,12.3-1.6
						c0.7,0.2,1.5,0.2,2.2,0c2.9-0.8,5.6-0.8,8.3,0.6c0.6,0.4,1.7,0.4,2.4,0.1c6.2-2.1,11.5,0.9,14.4,4.8c1,1.3,1.9,1.8,3.6,1.5
						c6.3-1,11.2,1.7,13.9,7.6c0.7,1.5,1.4,2.7,3.1,3.3c2.8,1.1,4.4,3.4,4.9,6.3C135.6,46.1,136.1,47,137.1,47.8z M132.4,58.3
						c1.2-2.2,0.9-3.4-1-4.9c-0.5-0.4-1-0.7-1.6-1c-1.7-0.9-2.3-2.3-2.2-4.1c0.2-2.6,0.1-2.7-2.4-3c-2.2-0.3-3.4-1.4-3.9-3.6
						c-0.3-1.3-0.7-2.5-1.3-3.6c-1.2-2.4-3.1-3.2-5.7-2.6c-0.9,0.2-1.7,0.5-2.5,0.8c-1.3,0.3-1.2,1.2-0.7,2c0.6,1,1.6,1.8,2.2,2.8
						c0.4,0.6,0.7,1.5,0.5,2.1c-0.2,0.6-1.1,0.9-1.8,1.2c-0.4,0.2-0.9,0-1.4,0.1c-1.5,0.2-3.3,1.8-3.5,3.2c-0.4,2.7-1,3-3.6,2.1
						c-0.9-3.7,0-6.1,3.1-8.2c0.4-0.3,1-0.9,0.9-1.3c-0.6-3.1-1.3-6.3-3.4-9c-2.4-3.1-4.5-3.5-7.9-1.3c-2.8,2.1-2.5,6.1,0.4,7.5
						c1,0.5,1.6,1.1,1.4,2.2c-0.2,1.3-1.1,1.7-2.2,1.7c-0.5,0-0.9-0.1-1.4-0.2c-0.7-0.5-1.6-0.9-2.1-1.5c-0.9-1.2-1.8-1.8-3.3-0.9
						c-1.1,0.7-2.4,0.1-2.6-1.1c-0.1-0.7,0.6-1.8,1.2-2.4c0.5-0.6,1.6-0.8,2.2-1.3c1.3-1.2,1.4-3.3,0.4-4.7
						c-1.1-1.6-1.5-1.7-3.8-0.5c-0.4,0.2-0.8,0.5-1.2,0.8c-2.6,0-5.1,0.2-7.6-0.8c-1.4-0.5-2.8-0.1-3.6,1.5
						c-0.8,1.7-1.7,3.3-2.2,5.1c-1.1,3.1-3.3,4.9-6,4.5c-0.3-0.7-0.9-1.5-0.7-2.1c0.2-0.7,1-1.3,1.6-1.8c1.3-1.1,1.7-2.3,0.8-2.9
						c-2.7-1.7-7.4-2.5-9.5-0.1c-4.4,3.5-4.4,5.2,0.2,8.3c0.3,0.2,0.6,0.4,0.7,0.6c0.2,0.6,0.4,1.4,0.2,1.9c-0.2,0.5-1.1,1-1.7,1
						c-0.6,0-1.2-0.5-1.8-0.8c-1.4-1.2-3.4-2.1-4-3.6c-0.8-1.9-1.8-2.6-3.4-2.4c-1.5,0.3-3.6-0.2-4.4,1.9c-2.6,4.8,2,10.1,6.4,9.3
						c0.9-0.2,1.9,0.3,2.9,0.5c0.4,2.5,0.2,3-2.3,3.4c-1.6,0.3-3.3,0.1-4.9,0.2c-0.5,0-1.1-0.1-1.5,0c-1.6,0.8-3.2,1.6-4.8,2.5
						c-0.9,0-1.9,0.1-2.8,0c-0.7-0.1-1.4-0.7-2-1c0.4-0.5,0.8-0.9,1.2-1.4c0.4-0.4,0.7-0.8,1.1-1.3c0.9-0.3,1.9-0.4,2.7-0.9
						c0.6-0.4,1.5-1.4,1.4-1.9c-0.3-1.1-1-2.7-1.8-2.8C36.8,46,34.7,46,33,47.6l0,0c-0.3,0.2-0.5,0.4-0.8,0.6
						c-0.5,1.3-1.3,2.5-1.4,3.8c-0.4,4.3-0.6,4.8-4.8,5.7c-0.4,0.1-1,0.6-1,0.6c0.6,1.4,1.3,2.9,2.1,4.2c0.2,0.4,1.1,0.3,1.7,0.3
						c1.2,0,2.3,0.1,2.4,1.6c0.1,1.7-0.9,2.2-2.4,2.4c-1.1,0.1-2.2,0.2-3.3,0.5c-2.6,0.7-3.2,1.7-2.4,4.3c0.1,0.4,0.3,0.8,0.5,1.1
						c1.9,3.8,0.9,4.1,5.7,2.6c0.5,0.2,1,0.4,1.5,0.6c0.6,2.4,0.4,2.9-1.9,3.7c-0.7,0.3-1.4,0.5-2.1,0.5c-1.6,0-1.3,0.7-0.7,1.6
						c1.6,2.6,4.2,3.6,6.9,4.2c1.4,0.4,2.7,1.3,4.1,1.7c1.2,0.4,2.6,1,3.7,0.9c1.3-0.2,2.6-1,3.8-1.8c2.4-1.5,3.5-1.6,5.8,0.2
						c1.3,1,2.7,1.6,4.4,1.2c0.3-0.1,0.7,0,0.9-0.1c1-0.6,2.4-1.1,2.8-1.9c0.5-1.3-0.5-2.5-1.7-3.3c-0.5-0.4-0.6-1.3-0.8-2
						c3.4-1.4,5.4-0.3,6.4,3.2c0.7,2.5,2.6,4,5.2,4.1c1.9,0,3.1,0.9,3.9,2.6c2.3,5,5.1,6.5,10.6,5.9c0.5,0,1.1,0,1.6-0.1
						c2.1-0.4,2.4-0.7,2.1-2.9c-0.2-1.1-0.6-2.1-0.9-3.2c0.4-1.2,0.9-2.3,2.3-1.9c0.8,0.3,1.7,1.2,1.9,2c0.4,1.7,0.6,3.5,0.5,5.2
						c-0.2,1.8,0.7,2.3,2,1.9c2-0.6,3.8-1.7,5.7-2.5c0.2-0.1,0.4-0.3,0.5-0.4c0,0,0,0,0,0c1.3-0.8,3.3-1.4,3.6-2.4
						c0.3-1.4-0.8-3.1-1.3-4.6c0-0.1-0.1-0.1-0.1-0.2c0.1-1.1,0.6-2.2,1.8-2.1c0.8,0.1,1.9,0.9,2.3,1.6c0.7,1.7,1.3,3.5,1.4,5.2
						c0.3,2.5,1.5,3.5,4,2.8c0.7-0.2,1.4-0.7,2.1-1c1.9-0.7,3.7-1.7,5.7-1.9c1.1-0.1,2.4,0.1,3.5-0.3c3.1-0.2,4.9-1.9,5.9-4.7
						c0.5-1.5,0.3-2.5-0.8-3.6c-2.6-2.7-5.7-4.3-9.4-4.6c-1.6-0.1-2.6-0.7-2.7-2.4c0.5-1.2,1.3-1.7,2.6-1.6c1,0.1,2,0.2,3.1,0.4
						c3.4,0.6,6.1,2.7,8.8,4.6c0.3,0.4,0.6,0.9,1,1.3c1.3,1.6,1.5,1.6,2.5-0.2c1.5-2.6,0.8-5.1-0.3-7.6c-0.6-1.4-1.1-2.8-0.4-4.3
						c0.3-0.6,0.8-1,1.1-1.6c0.2-0.5,0.5-1.3,0.3-1.7c-0.1-0.3-1-0.4-1.6-0.4c-1.1,0-2.2,0.2-3.3,0.1c-3-0.3-5.2-2.2-7.2-4.3
						c-1.9-2.1-3.3-2.1-5.4-0.1c-1.2,1.1-1.9,3.3-4.2,1.9c-0.8-1.2-0.6-2.3,0.3-3.4c0.6-0.7,1.2-1.4,1.8-2.2c4-2.6,7.4-2.1,10.7,1.4
						c1,1.1,2.5,1.8,3.8,2.6c1.3,0.4,2.5,0.8,3.4-0.5C131.4,60.1,131.9,59.2,132.4,58.3z"/>
					<path fill="#FEE156" d="M131.3,53.4c1.9,1.5,2.2,2.7,1,4.9c-0.5,0.9-1,1.8-1.6,2.6c-0.9,1.3-2.2,1-3.4,0.5
						c0.3-0.5,0.7-1.1,1-1.6c1-1.5,0.8-3.2-0.5-4.4c-0.5-0.5-1-1.1-1.6-1.4c-2-1-2.9-2.6-2.6-4.8c0.3-1.6-0.4-2.4-2-2.5
						c-2.6-0.1-4.1-1.7-4.5-4.1c-0.5-3.3-2.3-5.4-5.4-6.4c0.8-0.3,1.6-0.6,2.5-0.8c2.6-0.6,4.5,0.2,5.7,2.6c0.6,1.1,1,2.3,1.3,3.6
						c0.5,2.1,1.7,3.3,3.9,3.6c2.5,0.3,2.5,0.4,2.4,3c-0.1,1.9,0.6,3.2,2.2,4.1C130.3,52.7,130.8,53,131.3,53.4z"/>
					<path fill="#FEE156" d="M132.5,65.9c0.2,0.5,0,1.2-0.3,1.7c-0.3,0.6-0.8,1-1.1,1.6c-0.8,1.5-0.3,2.9,0.4,4.3
						c1.1,2.5,1.7,5,0.3,7.6c-1,1.8-1.2,1.8-2.5,0.2c-0.3-0.4-0.6-0.9-1-1.3c0.9-1.8,0.1-3.4-0.7-4.9c-1.1-2.1-1.4-3.8,0.3-5.7
						c0.4-0.4,0.5-1.4,0.3-1.9c-0.2-0.4-1.2-0.4-1.8-0.3c-3.1,0.6-5.6-0.8-7.9-2.5c-1.3-1-2.3-2.4-3.5-3.6c2-1.9,3.5-1.9,5.4,0.1
						c2,2.2,4.1,4,7.2,4.3c1.1,0.1,2.2-0.1,3.3-0.1C131.5,65.5,132.4,65.6,132.5,65.9z"/>
					<path fill="#FFEFAB" d="M127.9,55.5c1.3,1.2,1.5,2.8,0.5,4.4c-0.4,0.5-0.7,1.1-1,1.6c-1.3-0.9-2.8-1.5-3.8-2.6
						c-3.3-3.5-6.7-4-10.7-1.4c-2.7,0.1-5.8,2.3-6.3,4.8c-0.2,0.8,0.2,1.9,0.8,2.4c0.9,0.7,2.1,0.7,2.9-0.5c0.2-0.3,0.4-0.7,0.6-1.1
						c2.3,1.4,3-0.8,4.2-1.9c1.2,1.2,2.2,2.6,3.5,3.6c2.3,1.8,4.8,3.1,7.9,2.5c0.6-0.1,1.6,0,1.8,0.3c0.3,0.5,0.1,1.5-0.3,1.9
						c-1.7,1.9-1.4,3.6-0.3,5.7c0.7,1.4,1.5,3.1,0.7,4.9c-2.7-2-5.4-4-8.8-4.6c-1-0.2-2.1-0.3-3.1-0.4c-1.3-0.2-2.2,0.3-2.6,1.6
						c-0.6,0-1.4-0.3-1.9,0c-0.8,0.4-1.8,1-1.9,1.6c-0.1,0.6,0.8,1.5,1.5,2c0.6,0.4,1.5,0.5,2.3,0.5c3.5,0.2,6,2.2,8.3,4.5
						c0.8,0.8,1.4,1.7,0.7,3c-0.7,1.2-1.3,2.4-2,3.6c-1.2,0.4-2.4,0.2-3.5,0.3c-1.9,0.2-3.8,1.2-5.7,1.9c-0.7,0.3-1.4,0.7-2.1,1
						c-2.5,0.7-3.7-0.3-4-2.8c-0.2-1.8-0.7-3.6-1.4-5.2c-0.3-0.7-1.4-1.5-2.3-1.6c-1.2-0.1-1.6,1-1.8,2.1c-1-0.1-2.2-0.7-2.9-0.3
						c-1.2,0.7-0.8,2.1-0.4,3.2c0.1,0.1,0.1,0.3,0.2,0.4c0.3,1.3,0.6,2.6,0.9,3.8c-0.2,0.1-0.4,0.3-0.5,0.4
						c-1.9,0.8-3.8,1.9-5.7,2.5c-1.3,0.4-2.2-0.2-2-1.9c0.1-1.7-0.1-3.5-0.5-5.2c-0.2-0.8-1.2-1.8-1.9-2c-1.3-0.4-1.9,0.7-2.3,1.9
						c-1-0.6-2.3-0.8-3,0.1c-0.5,0.8-0.4,2-0.4,3c0,1,0.4,2,0.6,3c-5.5,0.6-8.3-0.9-10.6-5.9c-0.8-1.7-2-2.6-3.9-2.6
						C65,88,63,86.5,62.3,84c-1-3.5-3-4.5-6.4-3.2c-0.4,0-0.9,0-1.3,0c-1.1-0.1-2.3,0.1-2.4,1.3c0,0.8,0.7,1.7,1.1,2.5
						c0.5,1.2,1,2.3,1.5,3.5c-1.7,0.5-3.1-0.1-4.4-1.2c-2.3-1.8-3.4-1.8-5.8-0.2c-1.2,0.8-2.4,1.6-3.8,1.8c-1.2,0.2-2.5-0.4-3.7-0.9
						c-1.4-0.5-2.7-1.4-4.1-1.7c-2.8-0.7-5.3-1.7-6.9-4.2c-0.5-0.9-0.9-1.6,0.7-1.6c0.7,0,1.4-0.2,2.1-0.5c2.3-0.8,2.5-1.4,1.9-3.7
						c3.2-0.1,6.1,0,8.4,3c1.7,2.2,3.1,1.8,4.5-0.7c1.2,0.6,2.5,1,3.3-0.5c0.8-1.4-0.1-2.2-1.1-3c-0.8-0.7-1.5-1.4-2.2-2.2
						c-1.5-1.9-1.4-3,0.7-4.3c1.3-0.8,2.7-1.3,4.1-1.8c1.2-0.4,1.6-1.3,1.3-2.4c-0.3-1.3-1.3-1.7-2.4-1.4c-3.7,1-7,2.6-9.6,5.5
						c-1.1,1.3-2.6,1.7-4.1,1.1c-1.8-0.8-2.4-0.4-3.2,1.9c-1.2-0.8-2.3-1.5-3.5,0c-0.8,1.1-0.4,2.3,1.1,3.6c0.3,0.3,0.7,0.4,1,0.6
						c-4.8,1.5-3.8,1.2-5.7-2.6c-0.2-0.4-0.3-0.7-0.5-1.1c-0.8-2.6-0.2-3.6,2.4-4.3c1-0.3,2.2-0.4,3.3-0.5c1.5-0.1,2.5-0.7,2.4-2.4
						C31.1,63.1,30,63,28.8,63c-0.6,0-1.5,0-1.7-0.3c-0.8-1.3-1.5-2.8-2.1-4.2c0-0.1,0.6-0.6,1-0.6c4.1-1,4.4-1.4,4.8-5.7
						c0.1-1.3,0.9-2.6,1.4-3.8c0.3-0.2,0.6-0.4,0.8-0.6l0,0c3.1,0.4,3.5,0.8,3.5,4.5c-0.4,0.4-0.7,0.8-1.1,1.3
						c-0.4,0.5-0.8,0.9-1.2,1.4c0.7,0.4,1.3,0.9,2,1c0.9,0.2,1.9,0,2.8,0c1.6-0.8,3.2-1.7,4.8-2.5c0.4-0.2,1,0,1.5,0
						c1.7-0.1,3.3,0,4.9-0.2c2.5-0.4,2.7-0.8,2.3-3.4c0,0,0,0,0,0l0,0v0c-1-0.2-2-0.6-2.9-0.5c-4.3,0.8-8.9-4.5-6.4-9.3
						c1.6-0.2,2.7,0.5,3.6,1.8c1,1.5,2.5,2.6,3.8,3.9c0.3,0.2,0.6,0.3,0.9,0.5c2.6,0.1,2.8,0,3.4-2.2c0.6,0.3,1.2,0.8,1.8,0.8
						c0.6-0.1,1.4-0.5,1.7-1c0.3-0.5,0-1.3-0.2-1.9c-0.1-0.3-0.4-0.5-0.7-0.6c-4.6-3.1-4.6-4.9-0.2-8.3c1.4,0.3,2.8,0.5,4.1,1
						c2.6,1.1,2.7,1.9,0.6,3.6c-1.5,1.2-1.9,2.4-0.9,4.1c1.7,0.2,3-0.3,4-1.7c2.7,0.4,4.9-1.4,6-4.5c0.6-1.8,1.4-3.4,2.2-5.1
						c0.7-1.5,2.2-2,3.6-1.5c2.5,1,5.1,0.8,7.6,0.8c0.2,0.3,0.4,0.7,0.7,1c1.7,1.9,1.5,3.6-0.4,5.2c-0.6,0.5-1.3,0.8-2,1.2
						c-0.9,0.6-1.5,1.4-0.9,2.6c0.6,1.1,1.7,1.6,2.6,1c1.8-1.2,2.4-0.1,3.4,1c1.8,2.1,4.3,2,6-0.2c0.5,0.1,0.9,0.2,1.4,0.2
						c1.1,0,2-0.5,2.2-1.7c0.2-1.2-0.4-1.8-1.4-2.2c-2.9-1.4-3.2-5.4-0.4-7.5c2.5,0.8,4.3,2.4,5.2,4.8c0.9,2.2,1.6,4.5,2.3,6.8
						c0.1,0.3-0.3,1.1-0.7,1.2c-2.6,0.9-3.2,3.2-3.8,5.4c-0.5,1.7,0.1,3.2,1.5,3.6c1.8,0.6,2.4-0.7,2.8-2.1c2.6,1,3.3,0.6,3.6-2.1
						c0.2-1.4,2-3,3.5-3.2c0.5-0.1,1,0.1,1.4-0.1c0.6-0.3,1.6-0.6,1.8-1.2c0.2-0.6-0.1-1.5-0.5-2.1c-0.6-1-1.6-1.8-2.2-2.8
						c-0.5-0.8-0.5-1.7,0.7-2c3.1,1,4.9,3.1,5.4,6.4c0.4,2.4,1.9,4,4.5,4.1c1.6,0.1,2.3,0.9,2,2.5c-0.3,2.3,0.5,3.8,2.6,4.8
						C126.9,54.4,127.4,55,127.9,55.5z M85.3,64.6c5-2.1,7.8-6.8,7.1-11.8c-0.8-6.2-4.8-8.8-10-10.1c-2-0.5-4.4-0.3-6.4,0.2
						c-1.8,0.4-3.6,1.4-5,2.6c-4,0.7-7,4.7-6.8,8.9c0.1,1.7,1.1,2.7,2.6,3c1.4,0.3,3.1,0.6,3.8-1.4c2.4,0.3,4-0.6,4.7-2.9
						c0.1-0.4,0.4-0.6,0.6-0.9c1.3-0.5,2.3-0.4,3.4,0.8c1.5,1.8,1.7,2.9,0.4,5.7c-1.3,0.9-2.7,1.8-4,2.6c-2.1-0.6-3.5,0.2-3.7,2.5
						c-0.2,2.5-0.2,5.1,0,7.6c0.1,1.5,0.8,2.9,2.6,3.2c1.5,0.2,3.2,0.7,4.1-1.3c3.7,0.1,4.8-1,4.9-4.8c0-0.4,0-0.8,0-1.2
						C83.3,65.8,84,65.1,85.3,64.6z M83.6,80.7c0.7-1.4,0.3-2.6-0.5-3.8c-1.6-2.3-4.1-2.2-6.8,0c-2.4-0.2-3.5,0.4-4.2,2.3
						c-0.7,1.8,0,4.3,1.4,5.2c1.9,1.1,3.6,0.8,5.3-0.9C81.2,83.9,82.7,82.8,83.6,80.7z"/>
					<path fill="#FEE156" d="M126,83.5c1.1,1.1,1.3,2.1,0.8,3.6c-1,2.8-2.8,4.5-5.9,4.7c0.7-1.2,1.3-2.4,2-3.6
						c0.7-1.2,0.1-2.2-0.7-3c-2.3-2.4-4.8-4.3-8.3-4.5c-0.8,0-1.7-0.1-2.3-0.5c-0.7-0.5-1.6-1.4-1.5-2c0.1-0.6,1.1-1.3,1.9-1.6
						c0.5-0.3,1.3,0,1.9,0c0.1,1.7,1,2.3,2.7,2.4C120.2,79.3,123.3,80.8,126,83.5z"/>
					<path fill="#FEE156" d="M112.9,57.4c-0.6,0.7-1.2,1.4-1.8,2.2c-0.9,1.1-1.1,2.2-0.3,3.4c-0.2,0.4-0.4,0.7-0.6,1.1
						c-0.8,1.2-1.9,1.2-2.9,0.5c-0.6-0.4-1-1.6-0.8-2.4C107.1,59.7,110.2,57.5,112.9,57.4z"/>
					<path fill="#FEE156" d="M107.3,40.2c0.1,0.4-0.5,1-0.9,1.3c-3,2.2-3.9,4.5-3.1,8.2c-0.4,1.4-1,2.7-2.8,2.1
						c-1.4-0.4-1.9-1.9-1.5-3.6c0.6-2.2,1.2-4.5,3.8-5.4c0.3-0.1,0.7-0.9,0.7-1.2c-0.7-2.3-1.4-4.6-2.3-6.8c-0.9-2.4-2.8-4-5.2-4.8
						c3.4-2.2,5.5-1.8,7.9,1.3C106,33.9,106.7,37.1,107.3,40.2z"/>
					<path fill="#FEE156" d="M100.2,87.8c0.5,1.5,1.6,3.2,1.3,4.6c-0.3,1-2.3,1.6-3.6,2.4l0-0.1c0,0,0,0,0,0
						c-0.3-1.3-0.6-2.6-0.9-3.8c0-0.1-0.1-0.3-0.2-0.4c-0.4-1.2-0.8-2.6,0.4-3.2c0.7-0.4,2,0.2,2.9,0.3
						C100.1,87.7,100.1,87.7,100.2,87.8z"/>
					<path fill="#EBF2D6" d="M97.9,94.8L97.9,94.8C97.9,94.8,97.9,94.8,97.9,94.8C97.9,94.8,97.9,94.8,97.9,94.8z"/>
					<path fill="#FFEFAB" d="M86.7,104.9c3.1,0.2,6.1,0.4,9.2,0.5c-4.1,2.5-8.5,1.9-12.9,1.2c-1.5-0.3-3.1-0.4-4.6-0.4
						c-4.2,0.1-8.3-0.2-11.7-2.8c-1.9-1.4-3.4-3.3-5.1-5c-0.4-0.4-0.8-0.6-1.2-0.9c-0.9-0.5-1.9-1-2.9-1.5c2.5-1.9,4.9-0.9,7.3,0.1
						c0.4,0.2,0.8,0.7,1.1,1.2c4.1,5.9,9.9,7.9,16.8,7.3C84,104.6,85.3,104.8,86.7,104.9z"/>
					<path fill="#3B1F25" d="M92.4,52.8c0.7,5-2.1,9.7-7.1,11.8c-1.3,0.6-2,1.3-1.8,2.7c0.1,0.4,0,0.8,0,1.2c0,3.8-1.1,4.9-4.9,4.8
						c-2.2-0.8-3.3-2.2-3-4.7c0.3-2.4,0-4.9,0-7.4c1.3-0.9,2.7-1.8,4-2.6c0.4,0,0.8,0,1.2-0.1c2.5-0.6,3.5-1.8,3.6-4
						c0.1-2.1-1-3.7-3-4.3c-2.3-0.7-4.3,0-5.5,1.9c-0.2,0.3-0.5,0.6-0.6,0.9c-0.8,2.3-2.3,3.2-4.7,2.9c-2.6-1.7-3.3-3.4-2.1-6.2
						c0.6-1.5,1.2-2.9,2.5-4.3c1.5-1.2,3.2-2.1,5-2.6c2-0.5,4.4-0.7,6.4-0.2C87.6,44,91.6,46.6,92.4,52.8z"/>
					<path fill="#FEE156" d="M92.1,39.8c0.5,0.6,1.4,1,2.1,1.5c-1.7,2.2-4.1,2.3-6,0.2c-1-1.1-1.6-2.3-3.4-1c-0.9,0.6-2,0.1-2.6-1
						c-0.6-1.2,0-2,0.9-2.6c0.6-0.4,1.4-0.8,2-1.2c2-1.6,2.1-3.3,0.4-5.2c-0.3-0.3-0.4-0.6-0.7-1c0.4-0.3,0.8-0.5,1.2-0.8
						c2.3-1.1,2.7-1.1,3.8,0.5c1.1,1.5,0.9,3.5-0.4,4.7c-0.6,0.6-1.6,0.7-2.2,1.3c-0.6,0.6-1.3,1.7-1.2,2.4c0.2,1.3,1.5,1.8,2.6,1.1
						C90.3,38,91.2,38.6,92.1,39.8z"/>
					<path fill="#FEE156" d="M85.8,93.6c0.3,2.2,0,2.6-2.1,2.9c-0.5,0.1-1.1,0-1.6,0.1c-0.2-1-0.5-2-0.6-3c0-1-0.1-2.3,0.4-3
						c0.7-1,2-0.8,3-0.1C85.2,91.5,85.6,92.5,85.8,93.6z"/>
					<path fill="#FEE156" d="M81.5,50.1c2,0.6,3.1,2.2,3,4.3c-0.1,2.2-1.1,3.4-3.6,4c-0.4,0.1-0.8,0.1-1.2,0.1
						c1.3-2.7,1.2-3.9-0.4-5.7c-1-1.2-2.1-1.3-3.4-0.8C77.2,50.1,79.2,49.4,81.5,50.1z"/>
					<path fill="#3A2127" d="M83.1,76.9c0.8,1.2,1.2,2.4,0.5,3.8c-1,2.1-2.5,3.2-4.8,2.9C75.6,82,75,80.4,76.3,77
						C78.9,74.7,81.5,74.7,83.1,76.9z"/>
					<path fill="#FEE156" d="M78.7,73.2c-0.9,1.9-2.6,1.5-4.1,1.3c-1.8-0.3-2.5-1.8-2.6-3.2c-0.2-2.5-0.2-5.1,0-7.6
						c0.1-2.3,1.6-3.1,3.7-2.5c0,2.5,0.3,4.9,0,7.4C75.4,71,76.5,72.4,78.7,73.2z"/>
					<path fill="#FEE156" d="M78.8,83.6c-1.7,1.7-3.4,2-5.3,0.9c-1.4-0.9-2.1-3.3-1.4-5.2c0.7-1.9,1.8-2.5,4.2-2.3
						C75,80.4,75.6,82,78.8,83.6z"/>
					<path fill="#FEE156" d="M71,45.4c-1.3,1.3-1.9,2.8-2.5,4.3c-1.2,2.8-0.5,4.6,2.1,6.2c-0.7,1.9-2.4,1.7-3.8,1.4
						c-1.4-0.3-2.4-1.3-2.6-3C64,50,67,46,71,45.4z"/>
					<path fill="#FEE156" d="M67.1,33c0.9,0.5,0.5,1.8-0.8,2.9c-0.6,0.5-1.4,1.1-1.6,1.8c-0.2,0.6,0.4,1.4,0.7,2.1
						c-1,1.4-2.4,1.9-4,1.7c-1-1.7-0.6-2.9,0.9-4.1c2.1-1.7,2-2.5-0.6-3.6c-1.3-0.5-2.7-0.6-4.1-1C59.7,30.5,64.4,31.3,67.1,33z"/>
					<path fill="#FEE156" d="M56.7,82.8c1.2,0.9,2.2,2,1.7,3.3c-0.3,0.8-1.8,1.3-2.8,1.9c-0.3,0.1-0.6,0.1-0.9,0.1
						c-0.5-1.2-1-2.4-1.5-3.5c-0.4-0.8-1.1-1.7-1.1-2.5c0.1-1.3,1.3-1.4,2.4-1.3c0.4,0,0.9,0,1.3,0C56.2,81.5,56.2,82.5,56.7,82.8z"
						/>
					<path fill="#FEE156" d="M51.2,40.5c0.6,1.5,2.6,2.4,4,3.6c-0.6,2.2-0.7,2.3-3.4,2.2c-0.3-0.2-0.6-0.3-0.9-0.5
						c-1.3-1.3-2.8-2.5-3.8-3.9c-1-1.4-2-2-3.6-1.8c0.8-2.1,2.8-1.6,4.4-1.9C49.4,37.9,50.5,38.6,51.2,40.5z"/>
					<path fill="#FFEFAB" d="M52.7,49.8C52.7,49.8,52.7,49.8,52.7,49.8L52.7,49.8L52.7,49.8z"/>
					<path fill="#3D262A" d="M49.9,64.1c0.3,1.1-0.1,2-1.3,2.4c-1.4,0.5-2.9,1-4.1,1.8c-2.1,1.3-2.2,2.4-0.7,4.3
						c0.7,0.8,1.4,1.5,2.2,2.2c1,0.8,1.8,1.7,1.1,3c-0.8,1.5-2.1,1.1-3.3,0.5c0-0.1,0-0.1-0.1-0.2c-2-2.1-3.8-4-7.3-3.7
						c-2.2,0.3-4.4-1-5.6-3.3c0.7-2.3,1.4-2.7,3.2-1.9c1.5,0.6,3,0.2,4.1-1.1c2.5-3,5.9-4.5,9.6-5.5C48.7,62.4,49.6,62.8,49.9,64.1z
						"/>
					<path fill="#FEE156" d="M43.6,78.1c0,0.1,0.1,0.1,0.1,0.2c-1.4,2.5-2.9,2.9-4.5,0.7c-2.3-3-5.2-3.2-8.4-3
						c-0.5-0.2-1-0.4-1.5-0.6c-0.3-0.2-0.6-0.4-1-0.6c-1.5-1.2-1.9-2.5-1.1-3.6c1.1-1.5,2.3-0.8,3.5,0c1.2,2.3,3.4,3.5,5.6,3.3
						C39.8,74.1,41.6,76,43.6,78.1z"/>
					<path fill="#FFEFAB" d="M32.4,94.3c2.9,2.1,6.2,2.8,9.7,2.5c-3.4,2.3-7,2.1-10.6,0.7c-2.5-1-4.9-2.2-7.4-3.1
						C18,92.2,14.4,88,13.4,81.5c-0.4-2.7-1.5-5.3-2.1-8c-0.6-2.7-0.3-5.5,1.3-7.8c0.8-1.3,1-2.3,0.6-3.9C12.6,59,12.6,56,15.4,54
						c0.6-0.6,1.2-1.5,1.9-1.7c1.6-0.3,1.7-1.4,2.1-2.7c0.8-2.9,2.3-5.6,4.9-7.3c0.6-0.4,1.6-0.4,2.4-0.5c-1.5,2.5-3.3,4.8-3.7,7.8
						c-0.1,0.5-0.9,1-1.5,1.3c-1.9,0.9-3.3,2.2-4.2,4.1c0,0.1,0,0.3-0.1,0.4c-0.1,0.5-0.2,1-0.3,1.4c0,0.6,0,1.3,0,1.9
						c0.2,0.8,0.3,1.6,0.5,2.4c0,0.6,0.3,1.5,0,1.9c-3.1,4-2.8,8.3-1,12.7c0.3,0.9,0.8,1.8,0.9,2.7c0.7,8.9,6.4,13.6,13.8,15.3
						C31.4,93.9,32,94,32.4,94.3z"/>
					<path fill="#FEE156" d="M40.6,49.3c0.1,0.5-0.7,1.5-1.4,1.9c-0.8,0.5-1.8,0.6-2.7,0.9c-0.1-3.7-0.4-4.1-3.5-4.5
						c1.7-1.7,3.8-1.6,5.8-1.2C39.6,46.7,40.3,48.2,40.6,49.3z"/>
				</g>
			</g>
		</g>
	</g>
	<g>
		<defs>
			<rect id="SVGID_119_" x="-175" y="150" width="152" height="127"/>
		</defs>
		<clipPath id="SVGID_3_">
			<use xlink:href="#SVGID_119_"  overflow="visible"/>
		</clipPath>
		<g clip-path="url(#SVGID_3_)">
		</g>
	</g>
</g>
<g id="Layer_2">
</g>
</svg>
