<svg xmlns="http://www.w3.org/2000/svg" width="100" height="50" viewBox="0 0 100 50"><path d="M35.833,50a21.564,21.564,0,0,1-12.3-3.824A10,10,0,0,1,7.333,38.334q0-.2.007-.389A74.63,74.63,0,0,1,0,33.333a90.859,90.859,0,0,1,15.836-8.873,43.187,43.187,0,0,1,3.068-6.09A41.258,41.258,0,0,1,23.484,12.2a38.929,38.929,0,0,1,5.549-5.088A36.507,36.507,0,0,1,35.4,3.274,34.62,34.62,0,0,1,42.442.847a34.146,34.146,0,0,1,15.116,0A34.6,34.6,0,0,1,64.6,3.274a36.507,36.507,0,0,1,6.37,3.842A38.929,38.929,0,0,1,76.516,12.2,41.259,41.259,0,0,1,81.1,18.371a43.187,43.187,0,0,1,3.068,6.09A90.863,90.863,0,0,1,100,33.333a74.167,74.167,0,0,1-7.178,4.52c.008.159.011.319.011.48a10,10,0,0,1-16.282,7.78A21.566,21.566,0,0,1,64.166,50Z" fill="none"/></svg>